<?xml version="1.0" encoding="utf-8" ?>
<svg baseProfile="tiny" height="95" version="1.2" width="150" xmlns="http://www.w3.org/2000/svg" xmlns:ev="http://www.w3.org/2001/xml-events" xmlns:xlink="http://www.w3.org/1999/xlink"><defs /><polygon fill="#00BCD4" points="48,18 45,21 45,24 46,25 46,26 47,26 48,27 49,27 50,26 52,26 52,25 53,24 53,21 51,19 50,19 49,18" stroke="black" stroke-width="0.5" /><polygon fill="#00BCD4" points="31,18 30,19 30,21 29,22 29,24 30,25 30,26 31,27 32,27 33,28 34,28 35,27 36,27 38,25 38,20 36,18" stroke="black" stroke-width="0.5" /></svg>